HIERARCHY
ROOT Root
{
  OFFSET 10.339 12.0502 -0.438498
  CHANNELS 6 Xposition Yposition Zposition Zrotation Xrotation Yrotation
  JOINT Spine
  {
    OFFSET 5.3114 0 0
    CHANNELS 3 Zrotation Xrotation Yrotation
    JOINT Spine1
    {
      OFFSET 2.79004 0 0
      CHANNELS 3 Zrotation Xrotation Yrotation
      JOINT Neck
      {
        OFFSET 1.43377 0 0
        CHANNELS 3 Zrotation Xrotation Yrotation
        JOINT Head
        {
          OFFSET 1.86043 0 0
          CHANNELS 3 Zrotation Xrotation Yrotation
          End Site
          {
            OFFSET 0 0 0
          }
        }
      }
      JOINT LeftArm
      {
        OFFSET 0.0387506 0 2.55754
        CHANNELS 3 Zrotation Xrotation Yrotation
        JOINT LeftForeArm
        {
          OFFSET 4.24845 0 0
          CHANNELS 3 Zrotation Xrotation Yrotation
          JOINT LeftHand
          {
            OFFSET 4.01008 0 0
            CHANNELS 3 Zrotation Xrotation Yrotation
            End Site
            {
              OFFSET 0 0 0
            }
          }
        }
      }
      JOINT RightArm
      {
        OFFSET 0.0387506 0 -2.55754
        CHANNELS 3 Zrotation Xrotation Yrotation
        JOINT RightForeArm
        {
          OFFSET -4.24845 0 0
          CHANNELS 3 Zrotation Xrotation Yrotation
          JOINT RightHand
          {
            OFFSET -4.01009 0 0
            CHANNELS 3 Zrotation Xrotation Yrotation
            End Site
            {
              OFFSET 0 0 0
            }
          }
        }
      }
    }
  }
  JOINT LeftUpLeg
  {
    OFFSET -1.23318 0 2.05692
    CHANNELS 3 Zrotation Xrotation Yrotation
    JOINT LeftLeg
    {
      OFFSET 5.46397 0 0
      CHANNELS 3 Zrotation Xrotation Yrotation
      JOINT LeftFoot
      {
        OFFSET 4.68898 0 0
        CHANNELS 3 Zrotation Xrotation Yrotation
        End Site
        {
          OFFSET 0 0 0
        }
      }
    }
  }
  JOINT RightUpLeg
  {
    OFFSET -1.24454 0 -2.05007
    CHANNELS 3 Zrotation Xrotation Yrotation
    JOINT RightLeg
    {
      OFFSET -5.46397 0 0
      CHANNELS 3 Zrotation Xrotation Yrotation
      JOINT RightFoot
      {
        OFFSET -4.68901 0 0
        CHANNELS 3 Zrotation Xrotation Yrotation
        End Site
        {
          OFFSET 0 0 0
        }
      }
    }
  }
}
MOTION
Frames:	17
Frame Time:	0.0416667
18.9849 11.6814 -7.32635 99.8963 -16.5696 0.495494 -5.94356 -1.74219 1.25102 7.46294 -0.363661 2.27372 -17.544 3.31828 1.41576 32.1729 3.7798 -12.3816 -9.84529 -48.1475 -174.028 37.3647 3.84234 21.326 -1.65743 -18.2699 174.181 -174.118 -11.6359 -169.665 25.5608 1.09279 14.816 1.80324 19.7823 174.14 -18.9223 -0.0495435 171.805 -37.8657 -0.869586 -1.40586 26.4815 0.94229 177.502 143.156 -24.5579 178.274 -33.5373 -0.817246 -1.34264 -4.08713 5.72432 176.617 
18.6974 11.688 -7.33503 99.6396 -13.7633 0.172359 -5.63704 -1.24921 1.07935 7.64796 -0.213234 2.42798 -17.6371 2.90555 0.850057 31.6008 3.31346 -10.8835 -10.9426 -48.2161 -174.664 35.2899 3.25602 20.2129 -1.55096 -17.1771 174.216 -174.575 -13.742 -168.152 26.8563 1.3257 15.5484 1.65038 18.2214 174.19 -16.5961 -0.94995 171.434 -36.109 -0.83089 -1.37537 25.7166 2.53528 177.132 141.932 -20.4443 178.424 -28.8065 -0.783201 -1.2101 -6.98639 3.92194 176.959 
18.389 11.7057 -7.33388 98.9417 -11.7241 -0.158356 -5.24879 -0.423906 0.970782 7.94342 0.0117204 2.23196 -17.593 2.43198 0.782702 31.4533 2.68606 -9.78783 -10.4994 -47.0294 -174.575 33.1079 2.68775 19.0255 -1.40356 -15.6408 174.262 -175.328 -14.4461 -167.147 28.2469 1.59438 16.3305 1.52846 16.9555 174.227 -13.2911 -2.00318 171.022 -33.6826 -0.812275 -1.3133 25.1337 3.3544 177.076 141.514 -16.1654 177.989 -24.1715 -0.776191 -1.09716 -8.15674 2.82874 177.146 
18.1429 11.7059 -7.32342 99.2271 -8.05845 -0.255432 -5.00883 -1.08813 0.413894 7.40858 -0.183435 2.36225 -17.2696 2.18373 0.667451 30.9809 2.53114 -8.6404 -9.4324 -45.5021 -173.995 30.5757 2.0876 17.6299 -1.32743 -14.8367 174.284 -175.912 -14.5865 -166.334 30.2435 2.01458 17.4451 1.38096 15.4011 174.268 -11.6554 -2.52191 171.042 -31.6985 -0.770287 -1.25552 23.3674 5.75229 176.5 140.223 -13.5358 177.734 -20.3364 -0.775994 -1.04321 -6.93163 1.98937 177.184 
17.8918 11.7018 -7.30951 99.6947 -4.79025 -0.464785 -4.95816 -1.75393 0.235309 6.90186 -0.374789 2.50042 -16.9976 2.0098 0.241244 30.4135 2.38699 -7.6189 -7.89603 -43.0975 -173.447 28.106 1.56692 16.251 -1.25513 -14.0659 174.303 -176.341 -14.3616 -165.494 32.1562 2.45442 18.5032 1.15172 12.9392 174.324 -10.4713 -2.92184 171.194 -30.4121 -0.742193 -1.21871 21.8824 8.33292 175.971 139.393 -12.2501 177.182 -15.8794 -0.754312 -1.02276 -6.241 0.766715 177.214 
17.5864 11.6966 -7.27849 99.5249 -2.65421 -0.599308 -4.89371 -1.60795 0.410624 7.25334 -0.338803 2.28609 -17.0043 1.73261 0.00435854 29.8495 2.00689 -6.91777 -6.67793 -39.7676 -173.033 25.258 1.04205 14.6438 -1.08059 -12.182 174.347 -176.396 -14.5047 -164.599 34.1461 2.95221 19.5923 0.956898 10.8082 174.365 -7.67665 -3.30295 171.002 -28.2385 -0.724544 -1.15945 20.8256 9.28691 175.945 139.892 -10.3792 176.48 -11.4941 -0.708821 -1.01743 -9.17069 0.293611 177.38 
17.2765 11.6833 -7.23443 99.5472 -0.215936 -0.436831 -4.92849 -1.71008 0.249738 7.43574 -0.362805 2.34713 -16.9412 1.47363 -0.191188 29.3521 1.624 -6.34479 -5.02972 -36.4626 -172.612 22.9732 0.679504 13.3429 -0.92565 -10.4835 174.38 -175.362 -14.9652 -163.575 36.3562 3.55142 20.7871 0.736043 8.35707 174.403 -5.3101 -4.14294 170.563 -26.323 -0.705126 -1.11196 19.4194 10.089 176.022 140.301 -10.2262 176.163 -8.32684 -0.664877 -1.015 -13.2112 0.087207 177.419 
16.9636 11.6598 -7.18904 99.7947 2.61629 -0.520455 -5.08068 -1.92202 0.351011 7.31295 -0.424016 2.35162 -16.7896 1.1292 -0.259194 29.0318 1.12919 -5.61007 -2.8495 -33.9315 -171.989 21.401 0.461352 12.4422 -0.833793 -9.46508 174.397 -174.109 -14.4997 -163.063 37.8044 3.96975 21.5616 0.629767 7.16417 174.418 -3.85632 -4.63721 170.66 -25.8191 -0.681827 -1.09805 17.5946 11.6507 176.029 139.889 -11.7071 175.753 -8.25868 -0.600666 -1.01122 -14.8206 -0.263688 177.257 
16.6304 11.6319 -7.13402 100.038 5.01799 -0.765535 -5.43345 -1.87141 0.846003 7.22704 -0.397063 2.49843 -16.5549 0.921539 -0.806942 28.7037 0.823876 -4.6221 -0.412897 -32.3023 -171.619 20.4646 0.343457 11.9039 -0.772589 -8.78115 174.408 -173.986 -12.5556 -162.897 37.102 3.76481 21.1864 0.729763 8.2838 174.402 -2.60147 -5.14606 170.933 -26.0531 -0.670863 -1.10047 15.6321 12.8249 176.261 140.566 -13.0705 175.224 -8.22851 -0.573626 -1.01052 -16.5584 -0.803922 177.061 
16.2788 11.6284 -7.07395 100.607 7.40403 -1.15565 -6.1646 -1.82865 1.59797 7.36522 -0.369743 2.48223 -16.737 0.684705 -0.905063 28.5888 0.447109 -4.19655 2.06523 -30.9053 -171.228 20.5045 0.348509 11.9268 -0.746828 -8.51989 174.411 -173.561 -11.1862 -162.831 35.7628 3.38448 20.4686 0.804434 9.11694 174.391 -1.13012 -5.30869 171.524 -25.7275 -0.644712 -1.088 13.4369 13.4635 176.627 141.082 -15.6421 175.019 -8.60832 -0.594586 -1.01237 -18.7308 -3.80713 176.304 
15.9239 11.6349 -7.00029 101.421 9.08243 -2.10099 -7.02395 -1.29571 3.58439 7.49485 -0.224756 1.83107 -16.8548 0.424341 -0.684828 28.2108 0.0210525 -4.19159 4.11954 -29.3348 -171.227 21.0714 0.419069 12.2528 -0.771929 -8.77441 174.407 -173.373 -9.87712 -162.937 33.2745 2.72951 19.1167 0.930137 10.5115 174.369 -0.555889 -6.38154 172.241 -26.8103 -0.655233 -1.11355 12.6087 12.1108 177.016 139.891 -15.2968 174.769 -13.2992 -0.621241 -1.00867 -16.7825 -6.35176 175.889 
15.58 11.6389 -6.91498 101.778 10.7351 -2.4781 -7.13814 -0.870416 5.10389 7.3072 -0.0936272 1.69743 -16.5857 0.353009 -0.661269 27.6491 -0.154549 -4.44897 5.1746 -27.1683 -172.332 21.6726 0.497477 12.5979 -0.821632 -9.32715 174.398 -174.024 -7.312 -162.865 29.8504 1.92806 17.2268 1.23337 13.8219 174.305 -0.372481 -6.22415 172.637 -29.3832 -0.707361 -1.19736 9.95402 11.2289 177.549 139.593 -11.0808 176.011 -18.5263 -0.654159 -1.02621 -16.043 -5.14118 176.211 
15.2504 11.6836 -6.8264 102.354 13.1951 -3.39708 -7.63484 -0.959299 6.8105 7.52075 -0.0741913 1.94427 -16.5938 0.198588 -0.652334 27.7765 -0.520253 -4.65268 5.449 -27.2174 -173.43 22.281 0.579687 12.9472 -0.910778 -10.3154 174.381 -175.031 -4.45265 -162.711 26.7687 1.31095 15.4984 1.56002 17.2849 174.218 -1.70327 -5.15624 174.139 -34.3772 -0.778833 -1.3205 5.83097 10.1252 178.201 139.977 -8.62501 176.75 -21.5 -0.661742 -1.0499 -17.2509 -3.65699 176.361 
14.9506 11.7475 -6.74556 103.234 16.5098 -4.74356 -8.22229 -1.40637 8.37892 7.71204 -0.135156 2.52238 -16.9937 -0.127562 -1.01529 28.1272 -1.12166 -3.9755 5.05258 -29.5046 -174.122 23.4077 0.742414 13.5918 -0.957044 -10.8253 174.372 -176.056 -1.90475 -162.552 24.6035 0.932203 14.2725 1.84231 20.1771 174.127 -5.08917 -3.3916 176.586 -42.0293 -0.838983 -1.48038 0.825053 8.39338 178.648 140.856 -8.30284 177.062 -22.9025 -0.676261 -1.07423 -14.3632 -2.25414 176.632 
14.6852 11.8006 -6.68052 104.051 19.5423 -5.86898 -8.27313 -1.44264 9.50275 7.38511 -0.132963 2.5775 -17.0997 -0.491182 -1.19477 27.6992 -1.59315 -2.83995 5.40569 -32.6585 -173.758 26.3922 1.24036 15.2863 -1.05033 -11.8473 174.352 -176.286 -1.31005 -163.002 23.9061 0.820745 13.8753 1.96947 21.4354 174.079 -9.68729 -1.45045 178.712 -50.8162 -0.87562 -1.70741 1.89249 6.94504 178.172 141.78 -7.5491 177.486 -24.0753 -0.691356 -1.09936 -11.976 -0.892515 176.838 
14.4308 11.8402 -6.61723 104.443 21.9529 -6.03944 -7.99075 -1.06604 9.65188 7.37954 -0.0350639 2.45198 -16.7233 -0.849592 -1.04013 26.5126 -2.08351 -2.25512 5.73825 -35.3948 -173.046 30.4645 2.06324 17.5677 -1.22053 -13.6897 174.311 -176.159 -3.35277 -163.476 24.5222 0.919006 14.2261 1.86633 20.4108 174.117 -13.6414 0.786955 179.455 -57.25 -0.944948 -1.90099 10.3639 2.22806 177.304 142.393 -7.00836 178.226 -26.3232 -0.720214 -1.14987 -9.9543 0.576521 177.063 
14.1832 11.8701 -6.54443 104.501 24.0127 -5.97334 -7.36275 -0.826594 9.80357 7.56584 0.0183766 2.33018 -16.8061 -0.91979 -1.18925 26.1799 -2.19314 -2.0034 4.81816 -36.903 -172.999 33.6269 2.81723 19.31 -1.36147 -15.1915 174.272 -176.418 -6.78707 -163.359 26.0598 1.1804 15.0986 1.68513 18.5776 174.179 -17.1673 3.14815 179.574 -59.7399 -1.07381 -1.98482 18.5609 -2.01137 177.705 143.149 -7.34149 178.61 -28.7169 -0.769879 -1.21142 -7.10241 2.15839 177.204 
